<svg version="1.1" id="Layer_1" xmlns="http://www.w3.org/2000/svg" xmlns:xlink="http://www.w3.org/1999/xlink" x="0px" y="0px"
	 width="100%" viewBox="0 0 512 512" enable-background="new 0 0 512 512" xml:space="preserve">
<path fill="#000000" opacity="1.000000" stroke="none" 
	d="
M513.000000,247.000000 
	C513.000000,335.978394 513.000000,424.456787 513.000000,512.967590 
	C342.396606,512.967590 171.793182,512.967590 1.094887,512.967590 
	C1.094887,342.438293 1.094887,171.876526 1.094887,1.157371 
	C171.666550,1.157371 342.333252,1.157371 513.000000,1.157371 
	C513.000000,82.873444 513.000000,164.686722 513.000000,247.000000 
M459.051025,438.009766 
	C445.891418,437.997498 432.731110,438.056122 419.572693,437.924225 
	C416.188690,437.890320 414.730255,438.989044 414.819031,442.522980 
	C415.023956,450.678589 414.974121,458.840607 415.072968,467.515930 
	C415.379517,467.620911 415.686096,467.725861 416.925568,467.934479 
	C431.273773,467.892365 445.621979,467.850281 460.903839,467.937744 
	C468.160461,467.937744 475.417053,467.937744 482.987335,467.937744 
	C482.987335,458.714478 482.949646,450.237610 483.006531,441.761353 
	C483.028229,438.526672 481.148224,437.918915 478.460999,437.965149 
	C472.300873,438.071167 466.139160,438.084503 459.051025,438.009766 
M460.925446,242.108521 
	C466.925140,242.115234 472.932617,242.287216 478.918610,242.004288 
	C480.293854,241.939301 482.723419,240.348755 482.754974,239.396820 
	C483.050903,230.472900 482.930542,221.535156 482.930542,212.371750 
	C474.851074,212.371750 467.394348,212.371750 459.022003,212.213715 
	C444.457764,212.213715 429.893494,212.213715 414.883972,212.213715 
	C414.883972,221.443954 414.908997,230.054184 414.870361,238.664124 
	C414.856903,241.667221 416.672302,242.169327 419.123840,242.154541 
	C432.747437,242.072433 446.371307,242.031509 460.925446,242.108521 
M77.899246,467.921661 
	C84.814957,467.921661 91.730667,467.921661 99.100250,467.921661 
	C99.100250,458.704041 99.078720,450.106384 99.112106,441.508972 
	C99.123558,438.558868 97.392921,437.924469 94.894539,437.967712 
	C88.921814,438.071106 82.947777,438.099365 76.049026,438.021698 
	C62.755356,438.005005 49.460361,438.087189 36.168835,437.909821 
	C32.309792,437.858337 30.806234,439.118011 30.937572,443.080963 
	C31.201611,451.047821 31.097998,459.026855 31.151846,467.494293 
	C31.151846,467.494293 31.501972,467.841858 31.501972,467.841858 
	C31.501972,467.841858 31.995235,467.831604 32.927834,467.934967 
	C47.607265,467.884216 62.286701,467.833466 77.899246,467.921661 
M268.019531,212.227203 
	C253.138855,212.227203 238.258179,212.227203 222.954987,212.227203 
	C222.954987,221.435760 222.985245,230.038940 222.938522,238.641708 
	C222.922256,241.638107 224.701965,242.170273 227.161713,242.153625 
	C241.103226,242.059280 255.045029,242.003815 269.915436,242.089905 
	C275.553802,242.104141 281.200012,242.283768 286.825043,242.017029 
	C288.240448,241.949905 290.757385,240.491119 290.786255,239.607132 
	C291.081299,230.579239 290.966827,221.537964 290.966827,212.402603 
	C283.128113,212.402603 276.029724,212.402603 268.019531,212.227203 
M268.047913,438.026733 
	C254.596237,438.008270 241.143524,437.908234 227.694321,438.081604 
	C226.131882,438.101746 223.272934,439.588043 223.240265,440.476471 
	C222.907715,449.519623 223.037003,458.579742 223.037003,467.769165 
	C238.793350,467.769165 253.878418,467.769165 269.895477,467.919800 
	C276.798279,467.919800 283.701050,467.919800 291.038025,467.919800 
	C291.038025,458.714386 291.016754,450.128326 291.049774,441.542511 
	C291.061035,438.624786 289.381836,437.922272 286.864532,437.967010 
	C280.901306,438.073059 274.936707,438.104034 268.047913,438.026733 
M77.918732,242.093796 
	C83.564507,242.107071 89.218040,242.284790 94.850639,242.018967 
	C96.274765,241.951767 98.809723,240.507645 98.838455,239.630890 
	C99.134422,230.596939 99.020126,221.549545 99.020126,212.393463 
	C91.149498,212.393463 84.041145,212.393463 76.020210,212.221558 
	C61.109455,212.221558 46.198704,212.221558 31.011406,212.221558 
	C31.011406,221.434006 31.045904,229.915955 30.992077,238.397369 
	C30.974041,241.239212 32.403912,242.174652 35.035946,242.155762 
	C49.020119,242.055328 63.004704,242.011536 77.918732,242.093796 
M239.907898,422.950684 
	C244.601669,422.895172 249.295456,422.839691 254.914917,422.948853 
	C261.855988,422.948853 268.797028,422.948853 275.724762,422.948853 
	C275.724762,367.458160 275.724762,312.452423 275.724762,257.409851 
	C268.247070,257.409851 261.117126,257.409851 253.074005,257.207916 
	C248.134613,257.207916 243.195221,257.207916 237.928192,257.207916 
	C237.928192,259.540436 237.928192,261.347839 237.928192,263.155243 
	C237.928192,310.116730 237.921082,357.078217 237.936996,404.039703 
	C237.939026,410.028870 238.061188,416.017975 238.034470,422.547760 
	C238.351105,422.632080 238.667740,422.716400 239.907898,422.950684 
M47.908386,422.950531 
	C52.602100,422.895447 57.295818,422.840363 62.915352,422.948883 
	C69.870010,422.948883 76.824669,422.948883 83.785011,422.948883 
	C83.785011,367.478210 83.785011,312.452209 83.785011,257.408966 
	C76.263718,257.408966 69.125504,257.408966 61.074215,257.206940 
	C56.142132,257.206940 51.210052,257.206940 46.000553,257.206940 
	C46.000553,259.579926 46.000549,261.389679 46.000549,263.199463 
	C46.000549,301.656281 45.984951,340.113068 46.008572,378.569885 
	C46.017467,393.048950 46.117249,407.527954 46.083279,422.533966 
	C46.383812,422.622864 46.684345,422.711761 47.908386,422.950531 
M429.977997,422.565308 
	C430.313263,422.643738 430.648529,422.722168 431.904480,422.950867 
	C436.267303,422.898254 440.630157,422.845642 445.918671,422.954773 
	C453.181458,422.954773 460.444275,422.954773 467.679016,422.954773 
	C467.679016,367.440796 467.679016,312.452728 467.679016,257.401245 
	C459.902344,257.401245 452.446045,257.401245 444.075623,257.204254 
	C439.459625,257.204254 434.843597,257.204254 429.833618,257.204254 
	C429.833618,259.497650 429.833618,261.296295 429.833618,263.094971 
	C429.833588,288.919495 429.734436,314.744720 429.906708,340.568085 
	C429.947235,346.641296 428.872894,351.451111 422.202271,352.578583 
	C422.202271,359.294586 422.202271,365.573547 422.202271,371.769897 
	C428.692810,374.285828 429.792938,375.866547 429.833038,382.543488 
	C429.912048,395.697784 429.988464,408.852112 429.977997,422.565308 
M475.925140,497.985077 
	C479.900116,497.990143 483.875549,498.035217 487.850006,497.992676 
	C499.209259,497.871094 497.887238,499.851135 498.030243,487.020782 
	C498.063782,484.011597 496.811249,482.867249 493.867950,482.938110 
	C487.580780,483.089569 481.289734,483.079803 474.073578,482.986176 
	C323.296082,482.979401 172.518570,482.972534 21.741058,482.967438 
	C20.741875,482.967407 19.717726,482.861115 18.751472,483.046051 
	C17.991945,483.191437 16.700188,483.674988 16.677176,484.068665 
	C16.437569,488.167114 16.059874,492.325165 16.608845,496.345398 
	C16.719757,497.157654 20.556871,497.931091 22.676470,497.932129 
	C171.788040,498.005859 320.899628,497.999695 470.011230,497.992554 
	C471.673676,497.992462 473.336090,497.893036 475.925140,497.985077 
M475.919220,197.157074 
	C481.903473,197.163864 487.888947,197.101593 493.871460,197.206970 
	C496.805328,197.258636 498.042816,196.149109 498.036072,193.109772 
	C497.973267,164.850510 498.042816,136.590805 497.877747,108.332359 
	C497.868958,106.825874 496.432281,104.524635 495.089386,103.966202 
	C488.836060,101.365730 482.381775,99.248550 475.503784,96.442940 
	C406.291260,70.465050 337.063385,44.527954 267.888580,18.449978 
	C260.478882,15.656614 253.591553,15.633597 246.131668,18.488457 
	C215.103287,30.362858 183.928192,41.853367 152.844849,53.585243 
	C148.363235,55.276760 144.546844,55.620880 141.249252,51.347260 
	C140.701614,50.637531 138.721649,50.463322 137.660583,50.815643 
	C132.361938,52.575001 127.149017,54.592545 122.024734,56.475616 
	C122.177689,63.779060 121.126305,65.486961 115.061111,67.763878 
	C83.803009,79.498398 52.564728,91.287079 21.238161,102.836151 
	C17.368124,104.262909 15.850219,105.928345 15.886178,110.236015 
	C16.107283,136.722702 15.996780,163.212143 15.997158,189.700668 
	C15.997265,197.183716 15.998091,197.185272 23.714321,197.185287 
	C172.150024,197.185608 320.585724,197.186386 469.021423,197.176361 
	C471.013977,197.176224 473.006561,197.038422 475.919220,197.157074 
z"/>
<path fill="#F4DD7E" opacity="1.000000" stroke="none" 
	d="
M474.999115,196.964874 
	C473.006561,197.038422 471.013977,197.176224 469.021423,197.176361 
	C320.585724,197.186386 172.150024,197.185608 23.714321,197.185287 
	C15.998091,197.185272 15.997265,197.183716 15.997158,189.700668 
	C15.996780,163.212143 16.107283,136.722702 15.886178,110.236015 
	C15.850219,105.928345 17.368124,104.262909 21.238161,102.836151 
	C52.564728,91.287079 83.803009,79.498398 115.061111,67.763878 
	C121.126305,65.486961 122.177689,63.779060 122.024734,56.475616 
	C127.149017,54.592545 132.361938,52.575001 137.660583,50.815643 
	C138.721649,50.463322 140.701614,50.637531 141.249252,51.347260 
	C144.546844,55.620880 148.363235,55.276760 152.844849,53.585243 
	C183.928192,41.853367 215.103287,30.362858 246.131668,18.488457 
	C253.591553,15.633597 260.478882,15.656614 267.888580,18.449978 
	C337.063385,44.527954 406.291260,70.465050 475.750000,97.172195 
	C475.995453,115.920380 476.042419,133.939636 475.915375,151.957672 
	C475.903503,153.641129 474.791321,155.316833 474.074341,156.606323 
	C471.358398,142.831802 468.787903,129.441223 466.143829,116.065193 
	C465.033844,110.450111 462.026123,107.482315 457.508240,107.280373 
	C453.193512,107.087524 449.719086,110.049469 448.176086,115.424065 
	C445.654510,124.207268 443.230133,133.018326 440.729218,141.807526 
	C439.933563,144.603775 439.024994,147.367889 437.761383,151.465530 
	C433.871948,138.264511 430.449371,126.506935 426.932373,114.777657 
	C425.443573,109.812378 421.825043,107.009384 417.617249,107.286362 
	C413.248993,107.573898 410.095917,110.654526 409.127869,115.748482 
	C408.196564,120.649338 407.395172,125.574722 406.506195,130.483810 
	C404.046600,144.065781 401.525146,157.636765 399.123749,171.228973 
	C398.111511,176.958206 399.909790,180.679245 403.961243,181.874130 
	C408.802643,183.301971 412.836365,180.205429 413.922455,174.183624 
	C415.696777,164.345825 417.446472,154.503571 419.206543,144.663208 
	C422.957703,154.434616 426.037872,164.223038 428.771515,174.107315 
	C430.109131,178.943848 432.501526,182.319748 437.760376,182.672653 
	C442.256500,182.974380 445.370300,179.918137 447.087250,173.969101 
	C449.867584,164.335464 452.644257,154.700760 455.422485,145.066513 
	C458.279785,154.611038 460.155182,164.144241 461.964508,173.689957 
	C463.582397,182.225647 468.585297,184.376083 475.864014,180.074478 
	C475.606689,186.031281 475.302917,191.498077 474.999115,196.964874 
M74.451561,146.920151 
	C71.266937,136.074829 68.100777,125.224037 64.888847,114.386810 
	C63.551727,109.875290 60.492844,107.157845 55.766369,107.369858 
	C51.036655,107.582016 48.238808,110.592537 47.293270,115.178162 
	C46.621483,118.436142 46.173054,121.739494 45.577457,125.013969 
	C42.778755,140.400726 39.798275,155.757797 37.306698,171.193909 
	C36.857803,173.974960 37.645172,177.629471 39.272747,179.843475 
	C40.428032,181.415009 44.572647,182.438980 46.276714,181.560760 
	C48.683235,180.320511 51.102291,177.333359 51.705494,174.681213 
	C53.952206,164.802872 55.459229,154.756287 57.459438,143.566940 
	C58.281193,145.668335 58.700325,146.545303 58.972317,147.465759 
	C61.751534,156.870773 64.480843,166.290604 67.280479,175.689499 
	C68.557388,179.976303 71.463638,182.625336 75.968964,182.637024 
	C80.468605,182.648697 83.395668,180.034637 84.697388,175.746857 
	C85.614616,172.725555 86.351250,169.649918 87.228798,166.615982 
	C89.306671,159.432251 91.420448,152.258896 93.519707,145.081360 
	C96.379028,154.779907 98.212868,164.354263 100.028053,173.932175 
	C101.174850,179.983292 104.492592,182.887878 109.292862,182.003235 
	C113.780205,181.176254 115.983116,177.310303 114.880905,171.468430 
	C111.395653,152.996017 107.812286,134.541885 104.197189,116.094345 
	C103.086700,110.427612 100.090218,107.495552 95.583954,107.284851 
	C91.245331,107.081985 87.785774,110.002235 86.232506,115.411369 
	C83.388252,125.316261 80.649536,135.251419 77.828186,145.162979 
	C77.354416,146.827347 76.686218,148.436371 75.751808,151.077209 
	C75.195892,149.177032 74.973793,148.417892 74.451561,146.920151 
M289.427704,75.702744 
	C297.466278,51.454929 276.894958,26.375702 250.310287,31.525339 
	C233.662033,34.750225 222.613754,49.009808 222.905945,65.916832 
	C223.184219,82.018936 234.986938,95.744583 251.120773,98.728508 
	C267.191437,101.700745 282.757538,92.576416 289.427704,75.702744 
M136.853912,107.379631 
	C131.925537,108.484116 130.235138,111.871681 130.246994,116.570343 
	C130.279755,129.560577 130.192657,142.551407 130.281830,155.541107 
	C130.366013,167.805313 136.855804,175.895798 147.708618,180.516769 
	C164.280060,187.572647 185.820541,176.448486 186.834030,159.803879 
	C187.753448,144.704056 187.194672,129.508667 187.105698,114.356476 
	C187.080093,109.995216 184.161530,107.609299 180.061569,107.390076 
	C176.131790,107.179939 173.443954,109.442131 172.525757,113.332626 
	C172.150360,114.923279 172.216125,116.636124 172.212891,118.293640 
	C172.189148,130.451202 172.333633,142.611511 172.091751,154.764313 
	C172.039154,157.406418 171.259598,160.475983 169.734344,162.556503 
	C166.375641,167.137924 159.212799,168.763474 153.882751,166.902786 
	C148.051605,164.867172 145.305588,160.752899 145.287491,153.817566 
	C145.254898,141.326965 145.322311,128.835983 145.255325,116.345642 
	C145.222824,110.285660 143.728683,108.634338 136.853912,107.379631 
M338.621582,108.846657 
	C331.698730,105.734825 326.876862,108.480728 326.817993,115.817986 
	C326.708435,129.472076 326.764069,143.128021 326.848999,156.782593 
	C326.862305,158.917419 327.142578,161.120071 327.725037,163.170471 
	C331.218536,175.468216 344.996094,184.210602 357.992065,182.498184 
	C373.452606,180.461044 383.479736,170.122482 383.697449,155.591629 
	C383.889496,142.771912 383.770844,129.947006 383.729736,117.124565 
	C383.709900,110.939903 380.884094,107.341515 376.197815,107.300163 
	C371.493500,107.258659 368.751465,110.768814 368.733856,117.038361 
	C368.698761,129.527786 368.783600,142.017776 368.698120,154.506714 
	C368.645386,162.217773 362.781036,167.736237 354.914886,167.725677 
	C347.329651,167.715500 341.845306,162.268951 341.816406,154.577026 
	C341.770142,142.254211 341.955933,129.927719 341.684662,117.610680 
	C341.623413,114.830032 340.086517,112.081886 338.621582,108.846657 
M247.224045,112.177986 
	C239.677750,108.088127 231.777069,106.158211 223.187576,108.058029 
	C213.917374,110.108406 206.820435,117.388153 205.934753,125.873413 
	C204.893341,135.850647 209.074158,142.562393 219.102875,146.789886 
	C224.612274,149.112350 230.392380,150.895538 235.638138,153.694565 
	C238.051300,154.982162 241.410660,158.740479 240.918304,160.292999 
	C240.052612,163.022766 236.908142,166.086563 234.093018,166.933731 
	C227.006393,169.066422 220.814499,166.241714 215.445770,161.326035 
	C211.755142,157.946838 207.275055,158.016510 204.346710,161.163498 
	C201.303528,164.433899 201.543625,168.556046 205.244019,172.235703 
	C212.743408,179.693146 221.990234,183.089951 232.408371,182.609467 
	C243.855637,182.081497 253.207626,174.868973 255.763809,165.386108 
	C258.493866,155.258102 253.517822,145.423187 242.608536,140.208694 
	C236.923386,137.491287 230.862427,135.562119 225.165085,132.867081 
	C223.394958,132.029755 220.798691,129.327789 221.133148,128.385635 
	C221.886856,126.262611 223.955414,124.175964 226.022232,123.083099 
	C227.735550,122.177170 230.382324,122.150009 232.313217,122.733696 
	C235.913574,123.822044 239.369781,125.487404 242.746567,127.189224 
	C246.684937,129.174072 250.689713,128.611008 253.017029,125.408005 
	C255.437851,122.076302 254.693024,117.684334 251.148849,114.814095 
	C250.119492,113.980476 248.944672,113.326485 247.224045,112.177986 
M307.827606,150.358383 
	C311.982727,143.209442 309.000397,137.953857 300.705872,137.869003 
	C296.097595,137.821854 291.488434,137.860535 286.749023,137.860535 
	C286.749023,132.619766 286.749023,128.018265 286.749023,122.931808 
	C292.409424,122.931808 297.867310,123.024841 303.320496,122.904404 
	C308.301025,122.794403 311.652618,119.739716 311.748962,115.511711 
	C311.850525,111.053452 308.450562,107.980537 303.113922,107.928902 
	C295.456390,107.854805 287.797058,107.853317 280.139557,107.928368 
	C274.451080,107.984116 271.580872,110.446426 271.540100,115.976593 
	C271.396423,135.453903 271.404572,154.933411 271.532867,174.410919 
	C271.569489,179.967545 274.397705,182.625504 279.983002,182.730881 
	C287.638519,182.875320 295.299927,182.847809 302.956635,182.739853 
	C308.282196,182.664734 311.735077,179.563080 311.734650,175.180496 
	C311.734222,170.770065 308.357666,167.845200 302.939423,167.756165 
	C297.652924,167.669312 292.363861,167.737274 286.986908,167.737274 
	C286.787689,166.428635 286.569122,165.631653 286.561310,164.832611 
	C286.524353,161.033478 286.544769,157.233765 286.544769,152.890808 
	C290.003845,152.890808 293.148315,153.146484 296.232574,152.824890 
	C299.935547,152.438797 303.587250,151.560883 307.827606,150.358383 
z"/>
<path fill="#BEE49D" opacity="1.000000" stroke="none" 
	d="
M474.998535,497.839966 
	C473.336090,497.893036 471.673676,497.992462 470.011230,497.992554 
	C320.899628,497.999695 171.788040,498.005859 22.676470,497.932129 
	C20.556871,497.931091 16.719757,497.157654 16.608845,496.345398 
	C16.059874,492.325165 16.437569,488.167114 16.677176,484.068665 
	C16.700188,483.674988 17.991945,483.191437 18.751472,483.046051 
	C19.717726,482.861115 20.741875,482.967407 21.741058,482.967438 
	C172.518570,482.972534 323.296082,482.979401 474.542297,483.473022 
	C475.006866,488.586548 475.002716,493.213257 474.998535,497.839966 
z"/>
<path fill="#DCEAFB" opacity="1.000000" stroke="none" 
	d="
M444.989716,257.401245 
	C452.446045,257.401245 459.902344,257.401245 467.679016,257.401245 
	C467.679016,312.452728 467.679016,367.440796 467.679016,422.954773 
	C460.444275,422.954773 453.181458,422.954773 445.456970,422.418365 
	C444.993408,367.055054 444.991577,312.228149 444.989716,257.401245 
z"/>
<path fill="#DBE9FB" opacity="1.000000" stroke="none" 
	d="
M253.987213,257.409851 
	C261.117126,257.409851 268.247070,257.409851 275.724762,257.409851 
	C275.724762,312.452423 275.724762,367.458160 275.724762,422.948853 
	C268.797028,422.948853 261.855988,422.948853 254.451843,422.411560 
	C253.988251,367.052795 253.987732,312.231323 253.987213,257.409851 
z"/>
<path fill="#DBE9FB" opacity="1.000000" stroke="none" 
	d="
M61.987289,257.408966 
	C69.125504,257.408966 76.263718,257.408966 83.785011,257.408966 
	C83.785011,312.452209 83.785011,367.478210 83.785011,422.948883 
	C76.824669,422.948883 69.870010,422.948883 62.452530,422.412048 
	C61.988903,367.053162 61.988098,312.231049 61.987289,257.408966 
z"/>
<path fill="#ECF5FF" opacity="1.000000" stroke="none" 
	d="
M444.532654,257.302734 
	C444.991577,312.228149 444.993408,367.055054 444.994110,422.337494 
	C440.630157,422.845642 436.267303,422.898254 431.332031,422.700562 
	C430.571198,422.235382 430.339996,422.087433 430.065979,422.006409 
	C429.988464,408.852112 429.912048,395.697784 429.833038,382.543488 
	C429.792938,375.866547 428.692810,374.285828 422.202271,371.769897 
	C422.202271,365.573547 422.202271,359.294586 422.202271,352.578583 
	C428.872894,351.451111 429.947235,346.641296 429.906708,340.568085 
	C429.734436,314.744720 429.833588,288.919495 429.833618,263.094971 
	C429.833618,261.296295 429.833618,259.497650 429.833618,257.204254 
	C434.843597,257.204254 439.459625,257.204254 444.532654,257.302734 
z"/>
<path fill="#ECF5FF" opacity="1.000000" stroke="none" 
	d="
M61.530754,257.307953 
	C61.988098,312.231049 61.988903,367.053162 61.989624,422.330261 
	C57.295818,422.840363 52.602100,422.895447 47.350700,422.707336 
	C46.626846,422.258240 46.421043,422.105865 46.175598,422.006989 
	C46.117249,407.527954 46.017467,393.048950 46.008572,378.569885 
	C45.984951,340.113068 46.000549,301.656281 46.000549,263.199463 
	C46.000549,261.389679 46.000553,259.579926 46.000553,257.206940 
	C51.210052,257.206940 56.142132,257.206940 61.530754,257.307953 
z"/>
<path fill="#ECF5FF" opacity="1.000000" stroke="none" 
	d="
M253.530609,257.308899 
	C253.987732,312.231323 253.988251,367.052795 253.988998,422.329224 
	C249.295456,422.839691 244.601669,422.895172 239.343201,422.704529 
	C238.602005,422.249634 238.385071,422.099213 238.127686,422.007111 
	C238.061188,416.017975 237.939026,410.028870 237.936996,404.039703 
	C237.921082,357.078217 237.928192,310.116730 237.928192,263.155243 
	C237.928192,261.347839 237.928192,259.540436 237.928192,257.207916 
	C243.195221,257.207916 248.134613,257.207916 253.530609,257.308899 
z"/>
<path fill="#EED06F" opacity="1.000000" stroke="none" 
	d="
M474.190033,156.996140 
	C474.791321,155.316833 475.903503,153.641129 475.915375,151.957672 
	C476.042419,133.939636 475.995453,115.920380 475.997803,97.429970 
	C482.381775,99.248550 488.836060,101.365730 495.089386,103.966202 
	C496.432281,104.524635 497.868958,106.825874 497.877747,108.332359 
	C498.042816,136.590805 497.973267,164.850510 498.036072,193.109772 
	C498.042816,196.149109 496.805328,197.258636 493.871460,197.206970 
	C487.888947,197.101593 481.903473,197.163864 475.459167,197.060974 
	C475.302917,191.498077 475.606689,186.031281 475.970123,179.696548 
	C476.258911,176.097397 476.913635,173.319809 476.622375,170.645279 
	C476.123108,166.061630 475.032410,161.542404 474.190033,156.996140 
z"/>
<path fill="#4F6D8F" opacity="1.000000" stroke="none" 
	d="
M76.989143,241.948120 
	C63.004704,242.011536 49.020119,242.055328 35.035946,242.155762 
	C32.403912,242.174652 30.974041,241.239212 30.992077,238.397369 
	C31.045904,229.915955 31.011406,221.434006 31.011406,212.221558 
	C46.198704,212.221558 61.109455,212.221558 76.493088,212.746338 
	C76.973694,222.830124 76.981415,232.389130 76.989143,241.948120 
z"/>
<path fill="#4F6D8F" opacity="1.000000" stroke="none" 
	d="
M268.963501,467.769165 
	C253.878418,467.769165 238.793350,467.769165 223.037003,467.769165 
	C223.037003,458.579742 222.907715,449.519623 223.240265,440.476471 
	C223.272934,439.588043 226.131882,438.101746 227.694321,438.081604 
	C241.143524,437.908234 254.596237,438.008270 268.516113,438.552490 
	C268.977356,448.641876 268.970428,458.205536 268.963501,467.769165 
z"/>
<path fill="#4F6D8F" opacity="1.000000" stroke="none" 
	d="
M268.986725,241.935104 
	C255.045029,242.003815 241.103226,242.059280 227.161713,242.153625 
	C224.701965,242.170273 222.922256,241.638107 222.938522,238.641708 
	C222.985245,230.038940 222.954987,221.435760 222.954987,212.227203 
	C238.258179,212.227203 253.138855,212.227203 268.490845,212.753021 
	C268.970337,222.830933 268.978546,232.383011 268.986725,241.935104 
z"/>
<path fill="#4F6D8F" opacity="1.000000" stroke="none" 
	d="
M31.146099,467.000885 
	C31.097998,459.026855 31.201611,451.047821 30.937572,443.080963 
	C30.806234,439.118011 32.309792,437.858337 36.168835,437.909821 
	C49.460361,438.087189 62.755356,438.005005 76.518082,438.546875 
	C76.980141,448.642242 76.973137,458.212463 76.966141,467.782684 
	C62.286701,467.833466 47.607265,467.884216 32.353718,467.713135 
	C31.605042,467.280548 31.393875,467.117065 31.146099,467.000885 
z"/>
<path fill="#4F6D8F" opacity="1.000000" stroke="none" 
	d="
M459.995056,241.976501 
	C446.371307,242.031509 432.747437,242.072433 419.123840,242.154541 
	C416.672302,242.169327 414.856903,241.667221 414.870361,238.664124 
	C414.908997,230.054184 414.883972,221.443954 414.883972,212.213715 
	C429.893494,212.213715 444.457764,212.213715 459.497894,212.733246 
	C459.980896,222.827347 459.987976,232.401932 459.995056,241.976501 
z"/>
<path fill="#4F6D8F" opacity="1.000000" stroke="none" 
	d="
M415.027649,467.000031 
	C414.974121,458.840607 415.023956,450.678589 414.819031,442.522980 
	C414.730255,438.989044 416.188690,437.890320 419.572693,437.924225 
	C432.731110,438.056122 445.891418,437.997498 459.523163,438.531311 
	C459.986938,448.638000 459.978577,458.223083 459.970215,467.808197 
	C445.621979,467.850281 431.273773,467.892365 416.335449,467.704529 
	C415.547424,467.253937 415.308197,467.095734 415.027649,467.000031 
z"/>
<path fill="#445D7C" opacity="1.000000" stroke="none" 
	d="
M460.460266,242.042511 
	C459.987976,232.401932 459.980896,222.827347 459.955688,212.812256 
	C467.394348,212.371750 474.851074,212.371750 482.930542,212.371750 
	C482.930542,221.535156 483.050903,230.472900 482.754974,239.396820 
	C482.723419,240.348755 480.293854,241.939301 478.918610,242.004288 
	C472.932617,242.287216 466.925140,242.115234 460.460266,242.042511 
z"/>
<path fill="#455F7E" opacity="1.000000" stroke="none" 
	d="
M460.437012,467.872986 
	C459.978577,458.223083 459.986938,448.638000 459.986694,438.594177 
	C466.139160,438.084503 472.300873,438.071167 478.460999,437.965149 
	C481.148224,437.918915 483.028229,438.526672 483.006531,441.761353 
	C482.949646,450.237610 482.987335,458.714478 482.987335,467.937744 
	C475.417053,467.937744 468.160461,467.937744 460.437012,467.872986 
z"/>
<path fill="#445C7C" opacity="1.000000" stroke="none" 
	d="
M269.451080,242.012512 
	C268.978546,232.383011 268.970337,222.830933 268.946716,212.840729 
	C276.029724,212.402603 283.128113,212.402603 290.966827,212.402603 
	C290.966827,221.537964 291.081299,230.579239 290.786255,239.607132 
	C290.757385,240.491119 288.240448,241.949905 286.825043,242.017029 
	C281.200012,242.283768 275.553802,242.104141 269.451080,242.012512 
z"/>
<path fill="#445C7C" opacity="1.000000" stroke="none" 
	d="
M77.453934,242.020966 
	C76.981415,232.389130 76.973694,222.830124 76.949379,212.832291 
	C84.041145,212.393463 91.149498,212.393463 99.020126,212.393463 
	C99.020126,221.549545 99.134422,230.596939 98.838455,239.630890 
	C98.809723,240.507645 96.274765,241.951767 94.850639,242.018967 
	C89.218040,242.284790 83.564507,242.107071 77.453934,242.020966 
z"/>
<path fill="#455E7E" opacity="1.000000" stroke="none" 
	d="
M77.432693,467.852173 
	C76.973137,458.212463 76.980141,448.642242 76.980713,438.614990 
	C82.947777,438.099365 88.921814,438.071106 94.894539,437.967712 
	C97.392921,437.924469 99.123558,438.558868 99.112106,441.508972 
	C99.078720,450.106384 99.100250,458.704041 99.100250,467.921661 
	C91.730667,467.921661 84.814957,467.921661 77.432693,467.852173 
z"/>
<path fill="#455E7E" opacity="1.000000" stroke="none" 
	d="
M269.429504,467.844482 
	C268.970428,458.205536 268.977356,448.641876 268.978485,438.621796 
	C274.936707,438.104034 280.901306,438.073059 286.864532,437.967010 
	C289.381836,437.922272 291.061035,438.624786 291.049774,441.542511 
	C291.016754,450.128326 291.038025,458.714386 291.038025,467.919800 
	C283.701050,467.919800 276.798279,467.919800 269.429504,467.844482 
z"/>
<path fill="#A3D7A3" opacity="1.000000" stroke="none" 
	d="
M475.461853,497.912537 
	C475.002716,493.213257 475.006866,488.586548 475.005646,483.547974 
	C481.289734,483.079803 487.580780,483.089569 493.867950,482.938110 
	C496.811249,482.867249 498.063782,484.011597 498.030243,487.020782 
	C497.887238,499.851135 499.209259,497.871094 487.850006,497.992676 
	C483.875549,498.035217 479.900116,497.990143 475.461853,497.912537 
z"/>
<path fill="#DCEAFB" opacity="1.000000" stroke="none" 
	d="
M430.021973,422.285858 
	C430.339996,422.087433 430.571198,422.235382 430.871704,422.625427 
	C430.648529,422.722168 430.313263,422.643738 430.021973,422.285858 
z"/>
<path fill="#455E7E" opacity="1.000000" stroke="none" 
	d="
M31.148973,467.247589 
	C31.393875,467.117065 31.605042,467.280548 31.887419,467.661438 
	C31.995235,467.831604 31.501972,467.841858 31.501972,467.841858 
	C31.501972,467.841858 31.151846,467.494293 31.148973,467.247589 
z"/>
<path fill="#455F7E" opacity="1.000000" stroke="none" 
	d="
M415.050293,467.257996 
	C415.308197,467.095734 415.547424,467.253937 415.868988,467.652710 
	C415.686096,467.725861 415.379517,467.620911 415.050293,467.257996 
z"/>
<path fill="#DBE9FB" opacity="1.000000" stroke="none" 
	d="
M238.081085,422.277435 
	C238.385071,422.099213 238.602005,422.249634 238.881439,422.629547 
	C238.667740,422.716400 238.351105,422.632080 238.081085,422.277435 
z"/>
<path fill="#DBE9FB" opacity="1.000000" stroke="none" 
	d="
M46.129440,422.270477 
	C46.421043,422.105865 46.626846,422.258240 46.888947,422.632416 
	C46.684345,422.711761 46.383812,422.622864 46.129440,422.270477 
z"/>
<path fill="#040402" opacity="1.000000" stroke="none" 
	d="
M74.601624,147.289444 
	C74.973793,148.417892 75.195892,149.177032 75.751808,151.077209 
	C76.686218,148.436371 77.354416,146.827347 77.828186,145.162979 
	C80.649536,135.251419 83.388252,125.316261 86.232506,115.411369 
	C87.785774,110.002235 91.245331,107.081985 95.583954,107.284851 
	C100.090218,107.495552 103.086700,110.427612 104.197189,116.094345 
	C107.812286,134.541885 111.395653,152.996017 114.880905,171.468430 
	C115.983116,177.310303 113.780205,181.176254 109.292862,182.003235 
	C104.492592,182.887878 101.174850,179.983292 100.028053,173.932175 
	C98.212868,164.354263 96.379028,154.779907 93.519707,145.081360 
	C91.420448,152.258896 89.306671,159.432251 87.228798,166.615982 
	C86.351250,169.649918 85.614616,172.725555 84.697388,175.746857 
	C83.395668,180.034637 80.468605,182.648697 75.968964,182.637024 
	C71.463638,182.625336 68.557388,179.976303 67.280479,175.689499 
	C64.480843,166.290604 61.751534,156.870773 58.972317,147.465759 
	C58.700325,146.545303 58.281193,145.668335 57.459438,143.566940 
	C55.459229,154.756287 53.952206,164.802872 51.705494,174.681213 
	C51.102291,177.333359 48.683235,180.320511 46.276714,181.560760 
	C44.572647,182.438980 40.428032,181.415009 39.272747,179.843475 
	C37.645172,177.629471 36.857803,173.974960 37.306698,171.193909 
	C39.798275,155.757797 42.778755,140.400726 45.577457,125.013969 
	C46.173054,121.739494 46.621483,118.436142 47.293270,115.178162 
	C48.238808,110.592537 51.036655,107.582016 55.766369,107.369858 
	C60.492844,107.157845 63.551727,109.875290 64.888847,114.386810 
	C68.100777,125.224037 71.266937,136.074829 74.601624,147.289444 
z"/>
<path fill="#040402" opacity="1.000000" stroke="none" 
	d="
M474.074341,156.606323 
	C475.032410,161.542404 476.123108,166.061630 476.622375,170.645279 
	C476.913635,173.319809 476.258911,176.097397 475.923645,179.206543 
	C468.585297,184.376083 463.582397,182.225647 461.964508,173.689957 
	C460.155182,164.144241 458.279785,154.611038 455.422485,145.066513 
	C452.644257,154.700760 449.867584,164.335464 447.087250,173.969101 
	C445.370300,179.918137 442.256500,182.974380 437.760376,182.672653 
	C432.501526,182.319748 430.109131,178.943848 428.771515,174.107315 
	C426.037872,164.223038 422.957703,154.434616 419.206543,144.663208 
	C417.446472,154.503571 415.696777,164.345825 413.922455,174.183624 
	C412.836365,180.205429 408.802643,183.301971 403.961243,181.874130 
	C399.909790,180.679245 398.111511,176.958206 399.123749,171.228973 
	C401.525146,157.636765 404.046600,144.065781 406.506195,130.483810 
	C407.395172,125.574722 408.196564,120.649338 409.127869,115.748482 
	C410.095917,110.654526 413.248993,107.573898 417.617249,107.286362 
	C421.825043,107.009384 425.443573,109.812378 426.932373,114.777657 
	C430.449371,126.506935 433.871948,138.264511 437.761383,151.465530 
	C439.024994,147.367889 439.933563,144.603775 440.729218,141.807526 
	C443.230133,133.018326 445.654510,124.207268 448.176086,115.424065 
	C449.719086,110.049469 453.193512,107.087524 457.508240,107.280373 
	C462.026123,107.482315 465.033844,110.450111 466.143829,116.065193 
	C468.787903,129.441223 471.358398,142.831802 474.074341,156.606323 
z"/>
<path fill="#030302" opacity="1.000000" stroke="none" 
	d="
M289.282074,76.073868 
	C282.757538,92.576416 267.191437,101.700745 251.120773,98.728508 
	C234.986938,95.744583 223.184219,82.018936 222.905945,65.916832 
	C222.613754,49.009808 233.662033,34.750225 250.310287,31.525339 
	C276.894958,26.375702 297.466278,51.454929 289.282074,76.073868 
M248.301010,48.075039 
	C240.843262,51.892284 237.447357,58.156670 238.008682,66.335922 
	C238.507324,73.602058 241.816986,79.250023 249.504837,82.576279 
	C250.441330,82.917664 251.355850,83.347588 252.317780,83.586540 
	C260.667358,85.660645 269.366943,81.917366 273.700806,74.420616 
	C277.838257,67.263573 276.686920,58.124668 270.844940,51.751194 
	C265.331909,45.736588 256.442688,44.206612 248.301010,48.075039 
z"/>
<path fill="#050503" opacity="1.000000" stroke="none" 
	d="
M137.229828,107.335724 
	C143.728683,108.634338 145.222824,110.285660 145.255325,116.345642 
	C145.322311,128.835983 145.254898,141.326965 145.287491,153.817566 
	C145.305588,160.752899 148.051605,164.867172 153.882751,166.902786 
	C159.212799,168.763474 166.375641,167.137924 169.734344,162.556503 
	C171.259598,160.475983 172.039154,157.406418 172.091751,154.764313 
	C172.333633,142.611511 172.189148,130.451202 172.212891,118.293640 
	C172.216125,116.636124 172.150360,114.923279 172.525757,113.332626 
	C173.443954,109.442131 176.131790,107.179939 180.061569,107.390076 
	C184.161530,107.609299 187.080093,109.995216 187.105698,114.356476 
	C187.194672,129.508667 187.753448,144.704056 186.834030,159.803879 
	C185.820541,176.448486 164.280060,187.572647 147.708618,180.516769 
	C136.855804,175.895798 130.366013,167.805313 130.281830,155.541107 
	C130.192657,142.551407 130.279755,129.560577 130.246994,116.570343 
	C130.235138,111.871681 131.925537,108.484116 137.229828,107.335724 
z"/>
<path fill="#050503" opacity="1.000000" stroke="none" 
	d="
M338.925232,109.082718 
	C340.086517,112.081886 341.623413,114.830032 341.684662,117.610680 
	C341.955933,129.927719 341.770142,142.254211 341.816406,154.577026 
	C341.845306,162.268951 347.329651,167.715500 354.914886,167.725677 
	C362.781036,167.736237 368.645386,162.217773 368.698120,154.506714 
	C368.783600,142.017776 368.698761,129.527786 368.733856,117.038361 
	C368.751465,110.768814 371.493500,107.258659 376.197815,107.300163 
	C380.884094,107.341515 383.709900,110.939903 383.729736,117.124565 
	C383.770844,129.947006 383.889496,142.771912 383.697449,155.591629 
	C383.479736,170.122482 373.452606,180.461044 357.992065,182.498184 
	C344.996094,184.210602 331.218536,175.468216 327.725037,163.170471 
	C327.142578,161.120071 326.862305,158.917419 326.848999,156.782593 
	C326.764069,143.128021 326.708435,129.472076 326.817993,115.817986 
	C326.876862,108.480728 331.698730,105.734825 338.925232,109.082718 
z"/>
<path fill="#040402" opacity="1.000000" stroke="none" 
	d="
M247.530289,112.384064 
	C248.944672,113.326485 250.119492,113.980476 251.148849,114.814095 
	C254.693024,117.684334 255.437851,122.076302 253.017029,125.408005 
	C250.689713,128.611008 246.684937,129.174072 242.746567,127.189224 
	C239.369781,125.487404 235.913574,123.822044 232.313217,122.733696 
	C230.382324,122.150009 227.735550,122.177170 226.022232,123.083099 
	C223.955414,124.175964 221.886856,126.262611 221.133148,128.385635 
	C220.798691,129.327789 223.394958,132.029755 225.165085,132.867081 
	C230.862427,135.562119 236.923386,137.491287 242.608536,140.208694 
	C253.517822,145.423187 258.493866,155.258102 255.763809,165.386108 
	C253.207626,174.868973 243.855637,182.081497 232.408371,182.609467 
	C221.990234,183.089951 212.743408,179.693146 205.244019,172.235703 
	C201.543625,168.556046 201.303528,164.433899 204.346710,161.163498 
	C207.275055,158.016510 211.755142,157.946838 215.445770,161.326035 
	C220.814499,166.241714 227.006393,169.066422 234.093018,166.933731 
	C236.908142,166.086563 240.052612,163.022766 240.918304,160.292999 
	C241.410660,158.740479 238.051300,154.982162 235.638138,153.694565 
	C230.392380,150.895538 224.612274,149.112350 219.102875,146.789886 
	C209.074158,142.562393 204.893341,135.850647 205.934753,125.873413 
	C206.820435,117.388153 213.917374,110.108406 223.187576,108.058029 
	C231.777069,106.158211 239.677750,108.088127 247.530289,112.384064 
z"/>
<path fill="#080704" opacity="1.000000" stroke="none" 
	d="
M307.544373,150.627136 
	C303.587250,151.560883 299.935547,152.438797 296.232574,152.824890 
	C293.148315,153.146484 290.003845,152.890808 286.544769,152.890808 
	C286.544769,157.233765 286.524353,161.033478 286.561310,164.832611 
	C286.569122,165.631653 286.787689,166.428635 286.986908,167.737274 
	C292.363861,167.737274 297.652924,167.669312 302.939423,167.756165 
	C308.357666,167.845200 311.734222,170.770065 311.734650,175.180496 
	C311.735077,179.563080 308.282196,182.664734 302.956635,182.739853 
	C295.299927,182.847809 287.638519,182.875320 279.983002,182.730881 
	C274.397705,182.625504 271.569489,179.967545 271.532867,174.410919 
	C271.404572,154.933411 271.396423,135.453903 271.540100,115.976593 
	C271.580872,110.446426 274.451080,107.984116 280.139557,107.928368 
	C287.797058,107.853317 295.456390,107.854805 303.113922,107.928902 
	C308.450562,107.980537 311.850525,111.053452 311.748962,115.511711 
	C311.652618,119.739716 308.301025,122.794403 303.320496,122.904404 
	C297.867310,123.024841 292.409424,122.931808 286.749023,122.931808 
	C286.749023,128.018265 286.749023,132.619766 286.749023,137.860535 
	C291.488434,137.860535 296.097595,137.821854 300.705872,137.869003 
	C309.000397,137.953857 311.982727,143.209442 307.544373,150.627136 
z"/>
<path fill="#445D7D" opacity="1.000000" stroke="none" 
	d="
M248.997375,47.990898 
	C256.442688,44.206612 265.331909,45.736588 270.844940,51.751194 
	C276.686920,58.124668 277.838257,67.263573 273.700806,74.420616 
	C269.366943,81.917366 260.667358,85.660645 252.317780,83.586540 
	C251.355850,83.347588 250.441330,82.917664 249.257843,81.913605 
	C249.341797,80.336517 249.555893,79.357155 250.022278,78.518021 
	C253.615906,72.052513 255.223465,65.303185 252.820343,58.058979 
	C251.691101,54.654827 250.280487,51.344009 248.997375,47.990898 
z"/>
<path fill="#4E6B8D" opacity="1.000000" stroke="none" 
	d="
M248.649200,48.032967 
	C250.280487,51.344009 251.691101,54.654827 252.820343,58.058979 
	C255.223465,65.303185 253.615906,72.052513 250.022278,78.518021 
	C249.555893,79.357155 249.341797,80.336517 249.004944,81.626526 
	C241.816986,79.250023 238.507324,73.602058 238.008682,66.335922 
	C237.447357,58.156670 240.843262,51.892284 248.649200,48.032967 
z"/>
</svg>